HIERARCHY
ROOT Hips
{
  OFFSET 0.0000 0.0000 0.0000
  CHANNELS 6 Xposition Yposition Zposition Zrotation Xrotation Yrotation
  JOINT Spine
  {
    OFFSET 0.0000 12.0000 0.0000
    CHANNELS 3 Zrotation Xrotation Yrotation
    JOINT Spine1
    {
      OFFSET 0.0000 12.0000 0.0000
      CHANNELS 3 Zrotation Xrotation Yrotation
      JOINT Neck
      {
        OFFSET 0.0000 6.0000 0.0000
        CHANNELS 3 Zrotation Xrotation Yrotation
        JOINT Head
        {
          OFFSET 0.0000 8.0000 0.0000
          CHANNELS 3 Zrotation Xrotation Yrotation
          End Site
          {
            OFFSET 0.0000 10.0000 0.0000
          }
        }
      }
      JOINT LeftArm
      {
        OFFSET 15.0000 0.0000 0.0000
        CHANNELS 3 Zrotation Xrotation Yrotation
        JOINT LeftForeArm
        {
          OFFSET 25.0000 0.0000 0.0000
          CHANNELS 3 Zrotation Xrotation Yrotation
          JOINT LeftHand
          {
            OFFSET 22.0000 0.0000 0.0000
            CHANNELS 3 Zrotation Xrotation Yrotation
            End Site
            {
              OFFSET 10.0000 0.0000 0.0000
            }
          }
        }
      }
      JOINT RightArm
      {
        OFFSET -15.0000 0.0000 0.0000
        CHANNELS 3 Zrotation Xrotation Yrotation
        JOINT RightForeArm
        {
          OFFSET -25.0000 0.0000 0.0000
          CHANNELS 3 Zrotation Xrotation Yrotation
          JOINT RightHand
          {
            OFFSET -22.0000 0.0000 0.0000
            CHANNELS 3 Zrotation Xrotation Yrotation
            End Site
            {
              OFFSET -10.0000 0.0000 0.0000
            }
          }
        }
      }
    }
  }
  JOINT LeftUpLeg
  {
    OFFSET 10.0000 0.0000 0.0000
    CHANNELS 3 Zrotation Xrotation Yrotation
    JOINT LeftLeg
    {
      OFFSET 0.0000 -43.0000 0.0000
      CHANNELS 3 Zrotation Xrotation Yrotation
      JOINT LeftFoot
      {
        OFFSET 0.0000 -40.0000 0.0000
        CHANNELS 3 Zrotation Xrotation Yrotation
        End Site
        {
          OFFSET 0.0000 -5.0000 5.0000
        }
      }
    }
  }
  JOINT RightUpLeg
  {
    OFFSET -10.0000 0.0000 0.0000
    CHANNELS 3 Zrotation Xrotation Yrotation
    JOINT RightLeg
    {
      OFFSET 0.0000 -43.0000 0.0000
      CHANNELS 3 Zrotation Xrotation Yrotation
      JOINT RightFoot
      {
        OFFSET 0.0000 -40.0000 0.0000
        CHANNELS 3 Zrotation Xrotation Yrotation
        End Site
        {
          OFFSET 0.0000 -5.0000 5.0000
        }
      }
    }
  }
}
MOTION
Frames: 16
Frame Time: 0.041667
-0.0910 -7.1480 -0.0994 174.4613 22.4834 -4.9628 -0.0000 0.0000 0.0000 -0.0000 0.0000 0.0000 12.1944 49.9660 -5.6988 -0.0000 0.0000 0.0000 32.2663 -39.7051 -102.6002 26.9342 -9.5184 -38.3413 -0.0000 0.0000 0.0000 -49.7959 -19.1747 39.9949 77.8339 13.9929 17.2855 -0.0000 0.0000 0.0000 -44.7832 -53.2496 -23.3392 -104.6475 60.4167 74.0280 -0.0000 0.0000 0.0000 -47.5681 -35.6010 -16.1082 163.2606 66.4876 -154.6984 -0.0000 0.0000 0.0000
-0.0915 -7.1386 -0.1258 173.2355 18.8446 -2.5901 -0.0000 0.0000 0.0000 -0.0000 0.0000 0.0000 15.2010 53.3419 -7.6693 -0.0000 0.0000 0.0000 25.6328 -36.7220 -111.1440 25.6191 -10.6858 -44.7168 -0.0000 0.0000 0.0000 -38.0275 -19.6212 53.2956 102.0430 35.1235 28.7280 -0.0000 0.0000 0.0000 -36.9483 -58.6980 -21.2792 -112.3396 48.2391 67.4898 -0.0000 0.0000 0.0000 -45.9416 -46.0184 -20.4084 -175.1736 59.8849 171.6309 -0.0000 0.0000 0.0000
-0.0858 -7.1340 -0.1439 173.1303 21.2151 -3.9028 -0.0000 0.0000 0.0000 -0.0000 0.0000 0.0000 12.5881 54.0641 -6.4420 -0.0000 0.0000 0.0000 24.1993 -36.2043 -113.4865 26.6196 -11.0385 -44.4354 -0.0000 0.0000 0.0000 -25.1559 -16.3518 65.5565 129.2666 17.4723 8.3341 -0.0000 0.0000 0.0000 -43.0826 -61.6130 -26.4898 -110.1989 49.3869 66.7784 -0.0000 0.0000 0.0000 -64.0714 -47.5068 -30.7925 168.8262 58.5119 -160.1888 -0.0000 0.0000 0.0000
-0.0743 -7.1401 -0.1569 174.2459 29.2933 -8.0244 -0.0000 0.0000 0.0000 -0.0000 0.0000 0.0000 4.5808 50.1028 -2.1420 -0.0000 0.0000 0.0000 31.8721 -39.9979 -103.7677 23.6627 -13.2187 -57.8962 -0.0000 0.0000 0.0000 -14.8006 -10.4613 70.3557 59.5292 -27.7542 -46.7281 -0.0000 0.0000 0.0000 -57.7059 -63.4716 -37.6336 -100.3103 56.6766 65.7465 -0.0000 0.0000 0.0000 -77.8242 -38.9957 -31.9028 137.3936 54.1096 -105.2757 -0.0000 0.0000 0.0000
-0.0732 -7.1337 -0.1722 174.1221 36.3638 -10.8214 -0.0000 0.0000 0.0000 -0.0000 0.0000 0.0000 -0.1664 43.6557 0.0666 -0.0000 0.0000 0.0000 31.8987 -39.5237 -102.9976 2.4812 -2.2648 -84.7770 -0.0000 0.0000 0.0000 -3.3288 -2.6022 76.0258 22.7055 -12.2801 -56.3646 -0.0000 0.0000 0.0000 -72.9952 -68.6506 -53.6060 -94.1358 59.0168 62.6300 -0.0000 0.0000 0.0000 -84.7807 -37.3991 -34.3384 126.2573 47.1903 -81.5243 -0.0000 0.0000 0.0000
-0.0742 -7.1322 -0.1589 172.6295 45.5673 -10.2492 -0.0000 0.0000 0.0000 -0.0000 0.0000 0.0000 -0.6123 35.0996 0.1937 -0.0000 0.0000 0.0000 24.8741 -31.4451 -103.8482 -67.5465 53.8995 -74.4870 -0.0000 0.0000 0.0000 4.6850 3.8992 79.5299 23.6982 -9.9583 -45.1016 -0.0000 0.0000 0.0000 -80.3340 -71.6123 -62.6750 -106.7193 64.2663 80.3623 -0.0000 0.0000 0.0000 -80.9105 -37.7521 -32.5088 130.0139 38.4873 -73.6565 -0.0000 0.0000 0.0000
-0.0719 -7.1422 -0.1430 171.0068 52.6259 -8.2167 -0.0000 0.0000 0.0000 -0.0000 0.0000 0.0000 0.0376 29.5040 -0.0099 -0.0000 0.0000 0.0000 8.3163 -8.5893 -91.8570 -124.2259 2.0376 -1.0784 -0.0000 0.0000 0.0000 13.1443 10.7884 78.6756 15.7035 -3.8641 -27.4909 -0.0000 0.0000 0.0000 -58.3523 -78.3407 -48.9202 -115.8637 55.9134 80.5371 -0.0000 0.0000 0.0000 -68.6362 -40.0887 -27.9701 134.4623 34.7154 -73.3508 -0.0000 0.0000 0.0000
-0.0680 -7.1550 -0.1218 168.7790 60.4269 -5.2121 -0.0000 0.0000 0.0000 -0.0000 0.0000 0.0000 0.7182 23.7338 -0.1509 -0.0000 0.0000 0.0000 1.3606 -0.8027 -61.0778 -99.1880 -6.7210 5.7230 -0.0000 0.0000 0.0000 8.8867 7.5877 80.9518 23.7656 -3.2429 -15.3239 -0.0000 0.0000 0.0000 22.0865 -73.5837 16.6083 -112.2222 35.9474 51.5591 -0.0000 0.0000 0.0000 -10.6483 -38.0976 -3.6860 179.6056 52.2762 -179.1963 -0.0000 0.0000 0.0000
-0.0638 -7.1660 -0.0988 167.1725 65.1910 -3.4804 -0.0000 0.0000 0.0000 -0.0000 0.0000 0.0000 1.0352 20.4584 -0.1868 -0.0000 0.0000 0.0000 1.9254 -0.8919 -49.7084 -87.6072 -4.1132 4.2886 -0.0000 0.0000 0.0000 5.1392 4.5314 82.7987 28.0025 -2.3315 -9.3307 -0.0000 0.0000 0.0000 26.6497 -57.0931 14.6839 -103.7277 24.5162 30.9372 -0.0000 0.0000 0.0000 27.6756 -15.2598 3.7798 -115.9882 -5.0773 -8.1153 -0.0000 0.0000 0.0000
-0.0848 -7.1925 -0.0907 164.7966 61.0701 -1.4466 -0.0000 0.0000 0.0000 -0.0000 0.0000 0.0000 0.3467 21.7394 -0.0666 -0.0000 0.0000 0.0000 9.4689 -3.5918 -41.4720 -83.0892 0.1027 -0.1158 -0.0000 0.0000 0.0000 5.8900 5.2137 83.0174 30.2090 -1.3319 -4.9320 -0.0000 0.0000 0.0000 19.6104 -47.1613 8.6279 -86.5010 23.7198 22.3503 -0.0000 0.0000 0.0000 34.7765 -11.0562 3.4720 -93.2842 -9.7541 -10.3269 -0.0000 0.0000 0.0000
-0.0490 -7.1653 -0.1100 168.5263 69.0688 -5.5831 -0.0000 0.0000 0.0000 -0.0000 0.0000 0.0000 0.8371 18.0537 -0.1330 -0.0000 0.0000 0.0000 3.9452 -1.4379 -40.0368 -107.3424 -5.6865 4.1831 -0.0000 0.0000 0.0000 0.5338 0.4976 85.9754 30.3688 -2.3271 -8.5595 -0.0000 0.0000 0.0000 22.0215 -56.7827 12.0073 -107.2523 27.1772 36.3363 -0.0000 0.0000 0.0000 33.1426 -11.2897 3.3694 -118.3942 -11.4045 -19.0159 -0.0000 0.0000 0.0000
0.0310 -7.0879 -0.0835 -57.0324 82.8602 -148.0621 -0.0000 0.0000 0.0000 -0.0000 0.0000 0.0000 0.8987 1.0653 -0.0084 -0.0000 0.0000 0.0000 -55.1721 26.1704 -47.9657 21.2063 30.3796 110.8274 -0.0000 0.0000 0.0000 -35.6899 -28.9741 77.4999 114.9487 -1.2144 -0.7744 -0.0000 0.0000 0.0000 57.8097 25.0527 -13.9874 -167.7425 -26.8182 -131.5059 -0.0000 0.0000 0.0000 -13.2925 38.4966 4.6599 -178.3296 -32.0866 -174.1957 -0.0000 0.0000 0.0000
0.1241 -6.9829 -0.0391 -27.2144 39.1026 151.4355 -0.0000 0.0000 0.0000 -0.0000 0.0000 0.0000 30.4960 -26.7815 7.4259 -0.0000 0.0000 0.0000 8.9238 -28.5251 -145.8700 -87.0375 -71.2508 74.0797 -0.0000 0.0000 0.0000 -15.2054 0.0521 -0.3902 118.4767 67.9431 43.7062 -0.0000 0.0000 0.0000 -8.7029 47.9830 3.8792 169.9640 -1.4563 16.4716 -0.0000 0.0000 0.0000 -48.0108 -11.8456 -5.2905 124.7508 8.5483 -16.2548 -0.0000 0.0000 0.0000
0.2021 -6.8810 -0.0078 -25.2562 6.1080 132.7398 -0.0000 0.0000 0.0000 -0.0000 0.0000 0.0000 24.9746 -7.7109 1.7101 -0.0000 0.0000 0.0000 122.7985 -0.3471 -0.1893 -29.6176 56.6668 -127.7613 -0.0000 0.0000 0.0000 48.8310 7.6951 16.8545 34.9495 11.8320 36.4383 -0.0000 0.0000 0.0000 -0.6786 23.2435 0.1396 172.7623 27.8286 -151.3579 -0.0000 0.0000 0.0000 -31.6325 -33.4951 -9.7447 33.7667 32.5493 -10.1270 -0.0000 0.0000 0.0000
0.2418 -6.8247 -0.0015 -25.2521 -7.5036 130.3698 -0.0000 0.0000 0.0000 -0.0000 0.0000 0.0000 8.5927 1.1224 -0.0843 -0.0000 0.0000 0.0000 112.9577 10.3671 6.8779 -13.1894 33.6091 -138.1053 -0.0000 0.0000 0.0000 54.4996 15.8924 30.3280 21.2196 2.7557 14.6336 -0.0000 0.0000 0.0000 8.7516 16.2307 -1.2503 -178.6312 47.0394 176.8556 -0.0000 0.0000 0.0000 -26.0196 -36.9624 -8.8316 24.2235 26.2672 -5.7329 -0.0000 0.0000 0.0000
0.2112 -6.8421 -0.0071 -26.3755 -9.0658 138.2690 -0.0000 0.0000 0.0000 -0.0000 0.0000 0.0000 7.0863 -2.1827 0.1352 -0.0000 0.0000 0.0000 56.4582 33.2629 58.1844 -2.8378 13.6245 -156.5717 -0.0000 0.0000 0.0000 54.4997 16.0766 30.6675 11.3815 1.0179 10.1876 -0.0000 0.0000 0.0000 15.3301 13.1893 -1.7828 -176.3099 34.7625 168.2487 -0.0000 0.0000 0.0000 -30.7497 -32.7682 -9.2442 29.1745 23.0625 -6.0785 -0.0000 0.0000 0.0000
